<?xml version="1.0" standalone="no"?><!DOCTYPE svg PUBLIC "-//W3C//DTD SVG 1.1//EN" "http://www.w3.org/Graphics/SVG/1.1/DTD/svg11.dtd"><svg t="1778041578408" class="icon" viewBox="0 0 1024 1024" version="1.1" xmlns="http://www.w3.org/2000/svg" p-id="1668" width="256" height="256" xmlns:xlink="http://www.w3.org/1999/xlink"><path d="M384 213.333333a170.666667 170.666667 0 0 1 170.666667 170.666667 170.666667 170.666667 0 0 1-170.666667 170.666667 170.666667 170.666667 0 0 1-170.666667-170.666667 170.666667 170.666667 0 0 1 170.666667-170.666667m0 426.666667c113.92 0 341.333333 57.173333 341.333333 170.666667v85.333333H42.666667v-85.333333c0-113.493333 227.413333-170.666667 341.333333-170.666667m331.093333-411.306667c86.186667 93.866667 86.186667 224 0 310.186667l-71.68-72.106667c35.84-50.346667 35.84-115.626667 0-165.973333l71.68-72.106667M856.32 85.333333c167.68 172.8 166.4 431.36 0 597.333334l-69.546667-69.546667c118.186667-135.68 118.186667-329.386667 0-458.24L856.32 85.333333z" fill="#1aaba8" p-id="1669"></path></svg>